<svg width="1440" height="880" viewBox="0 0 1440 880" fill="none" xmlns="http://www.w3.org/2000/svg">
  <rect width="1440" height="880" fill="#063757"/>
  <path d="M597.215 878.915C593.411 884.275 587.956 887.206 582.427 890.352C576.679 893.664 571.492 898.139 566.214 902.179C557.288 909.055 548.859 916.588 539.53 923.002C527.773 931.065 515.13 928.507 507.795 916.278C502.387 907.301 497.757 897.709 494.334 887.893C486.537 865.674 479.684 843.059 472.489 820.728C464.954 824.544 457.006 828.619 449.057 832.694C441.496 836.582 433.983 840.567 426.515 844.649C417.085 849.738 407.14 848.685 399.765 840.955C396.233 837.225 392.926 832.848 391.09 828.179C382.461 806.958 374.051 785.573 366.244 764.075C359.456 745.431 353.539 726.366 347.21 707.559C346.818 706.375 346.328 705.238 345.63 703.544C342.379 705.471 339.513 707.452 336.387 709.02C331.83 711.458 327.291 714.306 322.435 715.754C311.539 719.042 301.872 713.493 299.744 702.276C294.793 676.055 285.375 651.095 278.637 625.378C274.775 610.816 270.647 596.323 267.341 581.553C263.718 565.383 258.135 549.979 252.24 534.547C247.111 521.075 242.298 507.39 238.089 493.594C235.881 486.297 234.714 478.558 234.003 470.897C233.387 465.042 236.316 460.344 241.814 457.75C247.796 454.923 253.824 455.657 258.331 460.291C262.125 464.193 265.282 469.001 268.055 473.755C288.93 510.448 305.132 549.217 320.341 588.526C325.426 601.661 331.093 614.515 336.469 627.51C337.026 628.913 337.584 630.316 338.12 631.551C347.216 629.729 355.709 628.02 364.273 626.335C366.782 625.841 369.288 625.587 371.768 625.405C379.476 624.791 384.889 628.211 388.184 635.162C391.127 641.507 394.167 647.805 397.037 654.124C410.036 682.912 422.962 711.674 435.96 740.462C438.223 745.522 440.873 750.395 443.517 755.749C454.768 747.75 466.661 742.07 475.343 731.967C484.685 721.127 497.505 721.33 506.416 732.738C527.052 759.035 547.006 785.899 563.68 815.002C571.196 828.099 579.128 840.697 590.217 851.173C596.746 857.399 599.568 865.475 598.718 874.605C598.217 876.042 597.716 877.478 597.215 878.915Z" fill="#094973"/>
  <path d="M240.559 865.65C227.891 870.092 215.706 874.3 203.59 878.774C186.008 885.289 171.78 877.343 169.203 858.637C167.767 847.743 167.682 836.674 166.921 825.693C166.484 819.095 166.528 812.503 165.657 805.995C162.841 785.433 163.008 764.866 163.922 744.236C163.992 742.649 163.944 740.94 163.978 738.535C159.031 743.013 154.741 746.994 150.307 750.926C143.754 756.777 136.288 759.006 127.816 755.808C122.12 753.66 118.379 749.373 116.801 743.505C115.749 739.592 115.156 735.518 115.02 731.522C114.347 710.822 113.531 690.072 113.364 669.307C113.245 650.251 113.874 631.133 114.093 612.033C114.389 583.937 115.07 555.894 117.676 527.877C118.724 516.56 117.945 505.17 117.985 493.742C118.013 489.965 117.827 486.113 118.24 482.39C118.959 475.712 123.427 470.987 129.627 469.846C136.188 468.591 142.524 471.446 145.617 477.36C146.811 479.71 147.786 482.226 148.255 484.807C152.95 510.375 158.514 535.763 161.859 561.504C164.871 585.196 165.45 609.167 167.185 633.057C167.953 643.558 168.914 653.965 169.84 665.165C174.606 663.283 178.672 661.559 182.759 660.005C188.903 657.637 194.979 655.003 201.823 655.941C208.498 656.9 213.766 662.122 214.637 668.63C215.996 678.129 217.836 687.634 218.857 697.175C221.509 722.594 223.655 748.079 226.138 773.519C227.526 787.782 229.108 801.95 230.655 816.913C235.53 815.874 239.87 815.213 244.072 814.021C251.028 812.097 257.869 809.811 264.825 807.887C267.506 807.131 270.302 806.737 273.045 806.727C278.531 806.708 282.927 808.886 285.527 813.903C289.275 821.173 293.023 828.443 296.48 835.853C306.567 857.744 316.486 879.656 326.379 901.639C327.545 904.302 328.589 907.083 329.32 909.836C331.89 920.482 328.548 928.904 319.23 934.596C315.129 937.113 310.697 939.192 306.247 940.862C296.887 944.364 287.477 948.01 277.865 950.618C263.279 954.552 253.435 947.895 249.333 933.33C244.473 916.084 244.144 898.324 242.056 880.756C241.499 875.888 241.132 871.167 240.559 865.65Z" fill="#EFC913"/>
  <path d="M7.3883 774.534C12.5963 775.189 17.5214 775.655 22.399 776.498C29.2296 777.664 36.2301 778.698 42.8808 780.684C56.5596 784.705 61.6205 792.625 61.9872 806.779C62.2066 816.008 64.1245 825.143 64.9668 834.296C66.4087 849.045 67.5392 863.832 68.8301 878.562C69.0081 880.195 69.1861 881.827 69.4487 884.007C71.1002 883.678 72.5158 883.396 73.9314 883.114C81.5945 881.318 89.2012 879.361 96.8549 877.64C104.914 875.74 112.339 877.057 118.241 883.167C120.344 885.348 121.974 888.237 123.237 891.002C124.612 894.089 125.572 897.43 126.296 900.818C128.092 909.094 132.285 915.985 137.102 922.802C146.499 935.868 156.246 948.595 168.722 959.134C176.972 966.076 182.656 974.535 181.269 986.168C180.386 993.801 176.852 999.95 170.706 1004.31C159.585 1012.27 148.19 1019.96 136.88 1027.59C131.433 1031.27 125.468 1033.59 118.693 1033.2C105.833 1032.42 96.422 1024.95 92.9688 1012.17C89.3086 998.6 86.1203 984.935 82.6961 971.317C81.3227 965.777 80.1002 960.256 78.7268 954.716C69.9965 957.682 61.7286 960.629 53.2627 963.321C34.415 969.308 16.7586 959.726 13.2256 940.267C9.92753 921.988 8.43195 903.398 6.15312 884.94C4.38085 870.38 2.53311 855.809 0.921278 841.192C0.480705 837.38 -1.2074 836.171 -4.74634 836.876C-8.20031 837.515 -11.6637 838.229 -15.1272 838.944C-25.2721 840.965 -35.4176 843.599 -45.6186 844.846C-55.7346 846.027 -63.9779 841.464 -70.6904 833.872C-73.2358 830.945 -72.7051 827.945 -71.9855 824.662C-66.1431 797.718 -57.5746 771.654 -47.3834 746.1C-43.0252 735.224 -40.4876 723.582 -37.601 712.214C-30.1433 682.79 -19.7518 654.424 -8.61509 626.23C-6.91332 621.843 -5.3625 617.438 -4.1041 612.919C-2.54286 607.212 0.235059 602.194 4.0882 597.772C5.88257 595.697 7.59103 594.915 10.1654 597.002C14.9652 600.903 17.8866 605.718 18.1838 611.889C19.4113 635.658 21.3275 659.438 21.4792 683.225C21.5459 694.888 18.6214 706.558 16.6216 718.19C13.9202 734.182 10.8415 750.126 7.98914 766.099C7.38345 768.476 7.55108 771.411 7.3883 774.534Z" fill="#094973"/>
  <path d="M423.663 610.685C424.087 617.244 427.191 622.601 430.246 628.182C433.4 634.018 435.467 640.55 437.838 646.759C441.826 657.297 445.047 668.133 449.621 678.488C455.395 691.523 467.5 695.982 480.162 689.424C489.477 684.621 498.453 678.887 506.519 672.329C524.818 657.509 542.522 641.858 560.367 626.626C564.778 633.83 569.404 641.471 574.03 649.111C578.425 656.389 582.729 663.725 586.942 671.119C592.298 680.4 601.316 684.724 611.65 682.016C616.615 680.695 621.727 678.705 625.74 675.694C644.223 662.162 662.607 648.373 680.536 634.173C696.1 621.867 711.144 608.745 726.402 596.06C727.358 595.258 728.372 594.547 729.855 593.471C731.61 596.818 733.01 600.009 734.848 602.984C737.447 607.452 739.815 612.258 743.188 616.039C750.737 624.557 761.877 624.909 769.577 616.478C787.554 596.758 808.673 580.457 827.906 562.104C838.837 551.737 849.958 541.568 860.525 530.731C872.096 518.87 884.933 508.689 898.051 498.648C909.488 489.873 920.768 480.751 931.593 471.218C937.302 466.166 942.357 460.191 946.984 454.044C950.581 449.383 950.554 443.847 947.236 438.754C943.629 433.207 938.112 430.667 931.844 432.246C926.566 433.576 921.355 436.011 916.5 438.603C879.472 458.877 845.331 483.371 811.753 508.846C800.53 517.357 788.959 525.324 777.563 533.563C776.351 534.464 775.14 535.366 774.036 536.135C767.25 529.811 760.919 523.898 754.513 517.968C752.637 516.231 750.638 514.7 748.622 513.243C742.384 508.675 735.981 508.744 729.528 512.931C723.693 516.786 717.8 520.551 712.039 524.423C685.865 542.104 659.765 559.801 633.591 577.481C629.009 580.6 624.195 583.357 619.134 586.526C613.756 573.812 606.615 562.735 604.529 549.578C602.267 535.448 591.248 528.891 577.675 533.925C546.308 545.475 515.223 557.867 485.754 573.887C472.482 581.09 459.118 587.649 444.181 590.745C435.355 592.618 428.715 598.01 424.645 606.227C424.318 607.713 423.99 609.199 423.663 610.685Z" fill="#094973"/>
  <path d="M734.198 786.602C742.65 797.033 750.812 807.011 758.776 817.178C770.322 831.952 786.603 832.657 798.615 818.088C805.556 809.568 811.438 800.192 817.85 791.245C821.685 785.858 825.108 780.224 829.265 775.142C842.455 759.119 853.109 741.524 863.159 723.485C863.932 722.098 864.87 720.669 866.104 718.604C867.964 725.011 869.526 730.653 871.236 736.326C873.743 744.746 878.927 750.562 887.817 752.287C893.793 753.448 899.227 751.763 903.651 747.597C906.6 744.819 909.243 741.662 911.456 738.333C922.894 721.067 934.481 703.834 945.522 686.247C955.626 670.089 965.126 653.487 974.965 637.115C989.46 613.044 1003.6 588.817 1016.09 563.603C1021.14 553.42 1027.78 544.134 1033.74 534.387C1035.7 531.157 1037.88 527.976 1039.48 524.59C1042.38 518.528 1041.05 512.161 1036.38 507.936C1031.45 503.424 1024.56 502.528 1018.82 505.938C1016.57 507.312 1014.42 508.941 1012.67 510.892C995.251 530.19 977.19 548.879 960.831 569.034C945.831 587.618 932.756 607.717 918.739 627.141C912.574 635.676 906.293 644.03 899.626 653.077C896.558 648.973 894.001 645.372 891.338 641.903C887.352 636.663 883.563 631.232 877.245 628.438C871.06 625.751 863.835 627.431 859.677 632.513C853.535 639.884 846.98 647.008 841.102 654.594C825.503 674.838 810.3 695.403 794.832 715.754C786.164 727.165 777.381 738.394 768.21 750.317C764.606 746.875 761.259 744.034 758.308 740.813C753.397 735.525 748.775 729.988 743.864 724.7C741.979 722.648 739.805 720.845 737.476 719.397C732.817 716.501 727.931 716.048 723.085 718.953C716.079 723.174 709.073 727.395 702.241 731.888C682.164 745.225 662.221 758.67 642.26 772.188C639.87 773.843 637.522 775.662 635.455 777.622C627.679 785.334 626.103 794.257 631.047 803.993C633.216 808.288 635.897 812.384 638.808 816.141C644.937 824.035 651.033 832.077 657.845 839.342C668.195 850.347 680.068 849.847 691.205 839.604C704.394 827.475 713.996 812.531 724.995 798.674C728.024 794.823 730.815 790.998 734.198 786.602Z" fill="#094973"/>
  <path d="M980.492 831.438C975.715 829.262 971.278 827.074 966.684 825.231C960.258 822.638 953.757 819.844 947.053 818.044C933.3 814.286 924.835 818.371 917.093 830.226C912.063 837.965 905.635 844.734 900.114 852.083C891.145 863.88 882.421 875.873 873.59 887.733C872.582 889.029 871.573 890.325 870.206 892.043C868.973 890.896 867.916 889.913 866.859 888.93C861.279 883.378 855.832 877.72 850.221 872.238C844.358 866.39 837.347 863.614 829.116 865.716C826.182 866.469 823.278 868.072 820.752 869.764C817.961 871.669 815.39 874.009 812.996 876.513C807.123 882.615 799.936 886.279 792.259 889.552C777.401 895.741 762.425 901.458 746.274 903.88C735.607 905.458 726.33 909.675 721.404 920.304C718.149 927.265 717.929 934.354 720.87 941.294C726.16 953.903 731.822 966.43 737.446 978.857C740.148 984.853 744.01 989.956 749.982 993.178C761.334 999.269 773.266 997.85 782.913 988.786C793.152 979.156 803.039 969.198 813.101 959.404C817.178 955.41 821.117 951.352 825.194 947.358C831.068 954.465 836.558 961.313 842.351 968.048C855.251 983.037 875.309 984.149 888.53 969.441C900.932 955.613 911.963 940.576 923.591 926.061C932.742 914.598 941.963 903.166 951.007 891.57C953.384 888.557 955.455 888.414 958.097 890.871C960.702 893.228 963.275 895.654 965.848 898.08C973.422 905.125 980.674 912.693 988.703 919.109C996.693 925.424 1006.1 925.867 1015.8 922.929C1019.51 921.773 1020.63 918.941 1021.74 915.769C1030.91 889.768 1037.3 863.086 1042.04 835.986C1044.04 824.441 1047.99 813.2 1051.5 802.009C1060.59 773.049 1066.64 743.451 1071.96 713.607C1072.81 708.98 1073.8 704.417 1075.1 699.91C1076.77 694.233 1077.04 688.504 1076.08 682.717C1075.64 680.009 1074.6 678.447 1071.31 678.872C1065.18 679.673 1060.17 682.237 1056.68 687.334C1043.15 706.922 1029.04 726.156 1016.43 746.324C1010.25 756.215 1006.61 767.683 1002.21 778.634C996.113 793.664 990.364 808.851 984.408 823.943C983.676 826.285 981.993 828.695 980.492 831.438Z" fill="#094973"/>
  <path d="M1241.86 1074.47C1248.43 1074.34 1253.92 1071.48 1259.63 1068.67C1265.6 1065.78 1272.22 1064.01 1278.53 1061.92C1289.23 1058.4 1300.2 1055.67 1310.75 1051.56C1324.03 1046.37 1329.02 1034.47 1323.04 1021.53C1318.65 1012.01 1313.32 1002.79 1307.13 994.441C1293.14 975.5 1278.29 957.117 1263.87 938.612C1271.26 934.526 1279.1 930.245 1286.94 925.963C1294.41 921.897 1301.93 917.924 1309.5 914.044C1319.01 909.107 1323.73 900.29 1321.49 889.846C1320.39 884.827 1318.63 879.631 1315.8 875.488C1303.1 856.421 1290.15 837.442 1276.76 818.898C1265.16 802.801 1252.72 787.189 1240.73 771.381C1239.97 770.39 1239.3 769.346 1238.29 767.816C1241.72 766.212 1244.97 764.955 1248.02 763.252C1252.6 760.854 1257.51 758.702 1261.43 755.5C1270.28 748.338 1271.13 737.225 1263.05 729.158C1244.15 710.321 1228.8 688.497 1211.32 668.466C1201.45 657.084 1191.79 645.522 1181.43 634.483C1170.1 622.395 1160.5 609.117 1151.05 595.565C1142.79 583.749 1134.18 572.075 1125.14 560.836C1120.35 554.908 1114.6 549.591 1108.67 544.696C1104.17 540.895 1098.64 540.675 1093.41 543.763C1087.7 547.12 1084.92 552.518 1086.22 558.85C1087.31 564.183 1089.51 569.496 1091.89 574.462C1110.49 612.356 1133.44 647.554 1157.4 682.232C1165.4 693.823 1172.84 705.737 1180.57 717.489C1181.42 718.739 1182.26 719.989 1182.98 721.127C1176.36 727.624 1170.17 733.686 1163.96 739.821C1162.14 741.618 1160.53 743.548 1158.98 745.497C1154.14 751.525 1153.92 757.925 1157.82 764.558C1161.41 770.559 1164.91 776.613 1168.52 782.541C1185.02 809.476 1201.54 836.338 1218.03 863.273C1220.95 867.99 1223.49 872.921 1226.43 878.118C1213.49 882.925 1202.1 889.566 1188.87 891.064C1174.65 892.695 1167.61 903.411 1172.03 917.194C1182.17 949.045 1193.17 980.65 1207.86 1010.8C1214.47 1024.38 1220.43 1038.03 1222.85 1053.09C1224.33 1061.99 1229.42 1068.86 1237.45 1073.29C1238.92 1073.68 1240.39 1074.08 1241.86 1074.47Z" fill="#094973"/>
  <path d="M1431.43 772.075C1442.22 764.096 1452.55 756.386 1463.07 748.882C1478.34 738.006 1479.77 721.772 1465.75 709.123C1457.55 701.81 1448.44 695.516 1439.79 688.712C1434.58 684.641 1429.1 680.971 1424.21 676.591C1408.79 662.702 1391.69 651.275 1374.11 640.432C1372.76 639.598 1371.38 638.597 1369.37 637.272C1375.85 635.699 1381.56 634.391 1387.3 632.935C1395.82 630.805 1401.86 625.885 1403.98 617.081C1405.41 611.162 1403.97 605.658 1400 601.054C1397.36 597.984 1394.32 595.203 1391.1 592.844C1374.36 580.648 1357.66 568.306 1340.58 556.493C1324.89 545.68 1308.72 535.45 1292.8 524.892C1269.4 509.34 1245.83 494.135 1221.2 480.537C1211.25 475.041 1202.27 467.992 1192.79 461.599C1189.66 459.5 1186.58 457.179 1183.26 455.427C1177.34 452.267 1170.92 453.305 1166.49 457.791C1161.76 462.511 1160.56 469.356 1163.71 475.238C1164.98 477.548 1166.51 479.769 1168.39 481.608C1186.89 499.866 1204.76 518.741 1224.16 535.981C1242.06 551.794 1261.56 565.751 1280.34 580.618C1288.59 587.157 1296.66 593.803 1305.4 600.867C1301.16 603.75 1297.45 606.143 1293.87 608.649C1288.45 612.398 1282.86 615.942 1279.79 622.128C1276.83 628.188 1278.18 635.481 1283.08 639.86C1290.17 646.325 1296.99 653.19 1304.31 659.4C1323.84 675.885 1343.71 691.989 1363.35 708.347C1374.36 717.514 1385.19 726.789 1396.69 736.481C1393.09 739.928 1390.11 743.145 1386.76 745.95C1381.25 750.621 1375.52 754.992 1370.02 759.663C1367.88 761.455 1365.98 763.546 1364.43 765.809C1361.33 770.334 1360.66 775.195 1363.35 780.166C1367.25 787.353 1371.16 794.539 1375.34 801.565C1387.77 822.215 1400.32 842.737 1412.93 863.28C1414.48 865.741 1416.19 868.168 1418.06 870.32C1425.42 878.431 1434.26 880.403 1444.21 875.898C1448.6 873.922 1452.81 871.426 1456.69 868.685C1464.85 862.914 1473.15 857.182 1480.72 850.7C1492.17 840.849 1492.2 828.966 1482.46 817.384C1470.93 803.669 1456.43 793.411 1443.08 781.806C1439.36 778.608 1435.67 775.65 1431.43 772.075Z" fill="#094973"/>
  <path d="M1487.18 528.021C1484.79 532.696 1482.41 537.031 1480.37 541.539C1477.49 547.843 1474.41 554.213 1472.31 560.83C1467.95 574.402 1471.65 583.041 1483.15 591.302C1490.66 596.673 1497.13 603.395 1504.23 609.238C1515.61 618.723 1527.21 627.972 1538.66 637.322C1539.91 638.387 1541.16 639.452 1542.82 640.895C1541.62 642.076 1540.59 643.088 1539.56 644.1C1533.76 649.427 1527.87 654.617 1522.14 659.979C1516.04 665.576 1512.95 672.456 1514.69 680.772C1515.31 683.737 1516.78 686.71 1518.36 689.308C1520.14 692.181 1522.36 694.853 1524.76 697.357C1530.59 703.496 1533.93 710.839 1536.86 718.654C1542.38 733.772 1547.42 748.988 1549.13 765.231C1550.23 775.957 1554.03 785.413 1564.43 790.808C1571.23 794.369 1578.31 794.904 1585.37 792.276C1598.2 787.552 1610.97 782.453 1623.63 777.388C1629.75 774.955 1635.01 771.325 1638.5 765.502C1645.09 754.432 1644.2 742.449 1635.58 732.408C1626.41 721.75 1616.91 711.43 1607.57 700.941C1603.76 696.691 1599.88 692.576 1596.07 688.325C1603.43 682.773 1610.52 677.593 1617.51 672.106C1633.05 659.886 1635.06 639.897 1620.95 626.034C1607.69 613.029 1593.16 601.34 1579.18 589.077C1568.13 579.425 1557.12 569.704 1545.94 560.153C1543.04 557.645 1542.99 555.569 1545.56 553.039C1548.03 550.542 1550.57 548.079 1553.11 545.617C1560.48 538.364 1568.36 531.455 1575.13 523.721C1581.8 516.019 1582.66 506.637 1580.15 496.817C1579.16 493.066 1576.38 491.818 1573.26 490.568C1547.7 480.249 1521.33 472.68 1494.46 466.74C1483.02 464.228 1471.97 459.781 1460.94 455.776C1432.42 445.399 1403.12 438.044 1373.54 431.4C1368.95 430.341 1364.44 429.147 1360 427.646C1354.4 425.728 1348.69 425.204 1342.86 425.904C1340.14 426.222 1338.53 427.195 1338.81 430.497C1339.34 436.66 1341.68 441.783 1346.61 445.498C1365.58 459.878 1384.16 474.833 1403.75 488.334C1413.36 494.946 1424.65 499.089 1435.4 503.976C1450.14 510.734 1465.06 517.153 1479.87 523.775C1482.17 524.611 1484.51 526.399 1487.18 528.021Z" fill="#094973"/>
</svg>
