<svg width="1440" height="772" viewBox="0 0 1440 772" fill="none" xmlns="http://www.w3.org/2000/svg">
  <g clip-path="url(#clip0)">
    <rect width="1440" height="788" fill="#063250"/>
    <path d="M1431.29 45.0769C1434.71 50.6943 1435.23 56.8637 1435.93 63.1875C1436.69 69.7777 1438.74 76.3138 1440.36 82.7605C1443.13 93.681 1446.71 104.406 1448.9 115.513C1451.64 129.504 1444.28 140.096 1430.14 141.982C1419.76 143.388 1409.11 143.835 1398.75 143.086C1375.26 141.434 1351.78 138.759 1328.42 136.51C1328.94 144.941 1329.53 153.853 1330.12 162.766C1330.69 171.249 1331.37 179.727 1332.16 188.2C1333.09 198.875 1328.18 207.588 1318.16 211.293C1313.33 213.057 1308 214.358 1302.99 214.191C1280.09 213.7 1257.12 212.942 1234.29 211.585C1214.48 210.425 1194.63 208.298 1174.86 206.652C1173.62 206.543 1172.38 206.541 1170.55 206.51C1171.03 210.259 1171.71 213.676 1171.91 217.167C1172.34 222.317 1173.16 227.613 1172.56 232.645C1171.26 243.952 1162.33 250.626 1151.19 248.133C1125.15 242.282 1098.51 241.032 1072.22 237.021C1057.33 234.793 1042.38 232.837 1027.51 230.016C1011.23 226.931 994.877 225.949 978.373 225.242C963.971 224.609 949.5 223.601 935.165 221.996C927.591 221.13 920.023 219.132 912.709 216.748C907.089 214.992 903.937 210.44 903.736 204.365C903.512 197.752 906.576 192.508 912.617 190.209C917.704 188.272 923.369 187.28 928.833 186.62C970.796 182.004 1012.81 182.501 1054.93 184.124C1069 184.663 1083.05 184.558 1097.11 184.774C1098.62 184.819 1100.13 184.863 1101.48 184.86C1103.41 175.788 1105.21 167.313 1107.06 158.783C1107.6 156.284 1108.36 153.883 1109.18 151.533C1111.67 144.214 1116.95 140.6 1124.64 140.331C1131.63 140.145 1138.62 139.852 1145.56 139.722C1177.14 139.203 1208.67 138.74 1240.25 138.221C1245.8 138.15 1251.32 137.649 1257.28 137.344C1254.4 123.844 1253.9 110.674 1248.07 98.6978C1241.82 85.8234 1247.09 74.1343 1261.1 70.4771C1293.42 61.9588 1325.99 54.2915 1359.32 50.5226C1374.33 48.8156 1389.04 46.5287 1403.05 40.5023C1411.36 36.977 1419.89 37.5877 1427.93 41.9876C1429.05 43.0174 1430.17 44.0471 1431.29 45.0769Z" fill="#EFC913"/>
    <path d="M1277.71 367.242C1276.76 380.634 1275.8 393.488 1275.1 406.385C1274.11 425.109 1261.17 435.02 1242.98 429.97C1232.41 426.968 1222.21 422.658 1211.83 419.003C1205.6 416.788 1199.56 414.134 1193.24 412.354C1173.25 406.786 1154.44 398.478 1135.86 389.459C1134.43 388.766 1132.84 388.132 1130.65 387.148C1132.8 393.464 1134.75 398.982 1136.6 404.611C1139.38 412.947 1138.46 420.684 1132.17 427.194C1127.94 431.571 1122.52 433.307 1116.5 432.428C1112.5 431.843 1108.52 430.772 1104.8 429.313C1085.53 421.723 1066.16 414.246 1047.03 406.166C1029.48 398.719 1012.18 390.562 994.735 382.789C969.059 371.376 943.584 359.633 918.897 346.133C908.923 340.683 898.157 336.882 887.682 332.315C884.226 330.791 880.616 329.435 877.361 327.58C871.515 324.272 868.949 318.296 870.36 312.153C871.809 305.631 876.943 300.947 883.598 300.452C886.229 300.288 888.925 300.39 891.481 300.983C916.815 306.81 942.327 311.768 967.286 318.904C990.23 325.531 1012.47 334.504 1035.09 342.383C1045.03 345.842 1054.97 349.086 1065.61 352.676C1065.78 347.555 1065.81 343.139 1066 338.77C1066.26 332.19 1066.25 325.568 1069.83 319.657C1073.35 313.91 1080.24 311.144 1086.56 312.925C1095.82 315.443 1105.27 317.523 1114.44 320.368C1138.82 328.012 1163.07 336.146 1187.41 343.953C1201.05 348.334 1214.69 352.499 1229.04 357.011C1230.02 352.124 1231.13 347.878 1231.7 343.547C1232.69 336.398 1233.31 329.212 1234.3 322.063C1234.67 319.302 1235.42 316.579 1236.49 314.057C1238.65 309.013 1242.39 305.841 1248.03 305.442C1256.19 304.884 1264.35 304.326 1272.52 304.091C1296.62 303.509 1320.67 303.091 1344.77 302.725C1347.68 302.711 1350.65 302.855 1353.46 303.275C1364.26 305.137 1370.66 311.544 1372.19 322.355C1372.88 327.118 1373.03 332.011 1372.8 336.759C1372.3 346.74 1371.92 356.824 1370.5 366.682C1368.33 381.633 1358.32 388.03 1343.32 386.022C1325.56 383.645 1309.13 376.905 1292.17 371.857C1287.48 370.439 1283 368.904 1277.71 367.242Z" fill="#094973"/>
    <path d="M973.563 508.101C977.116 504.237 980.351 500.493 983.865 497.008C988.775 492.118 993.675 487.012 999.149 482.744C1010.35 473.929 1019.74 474.396 1031.49 482.301C1039.13 487.472 1047.69 491.204 1055.64 495.824C1068.49 503.198 1081.2 510.848 1093.95 518.335C1095.38 519.136 1096.81 519.937 1098.74 520.987C1099.43 519.45 1100.02 518.133 1100.61 516.816C1103.59 509.531 1106.41 502.198 1109.44 494.964C1112.56 487.295 1117.94 482.008 1126.34 480.74C1129.34 480.291 1132.64 480.637 1135.62 481.212C1138.93 481.88 1142.21 483.035 1145.39 484.409C1153.18 487.743 1161.22 488.32 1169.57 488.346C1185.66 488.262 1201.69 487.697 1217.5 483.641C1227.94 480.941 1238.13 481.213 1246.81 489.086C1252.51 494.23 1255.48 500.674 1255.47 508.212C1255.51 521.886 1255.17 535.629 1254.83 549.265C1254.67 555.84 1253.1 562.043 1248.86 567.336C1240.77 577.367 1229.23 580.705 1216.81 576.112C1203.63 571.228 1190.65 565.905 1177.57 560.801C1172.26 558.709 1167.05 556.505 1161.74 554.413C1159.09 563.246 1156.7 571.692 1153.99 580.151C1147.94 598.979 1129.9 607.813 1112 599.412C1095.19 591.504 1079.18 581.947 1062.81 573.105C1049.92 566.109 1036.98 559.169 1024.13 552.009C1020.77 550.158 1018.81 550.833 1017.33 554.126C1015.85 557.31 1014.42 560.547 1013 563.783C1008.76 573.221 1005.03 583.016 1000.13 592.051C995.231 600.979 986.734 605.051 976.657 606.12C972.797 606.497 970.66 604.326 968.402 601.836C949.832 581.458 933.56 559.367 918.645 536.25C912.309 526.395 904.293 517.579 896.703 508.637C877.049 485.504 859.959 460.594 843.439 435.176C840.852 431.247 838.161 427.43 835.208 423.785C831.462 419.204 828.984 414.032 827.614 408.329C826.963 405.664 827.316 403.819 830.51 402.931C836.47 401.281 842.087 401.691 847.288 405.026C867.368 417.804 887.856 430.026 907.327 443.691C916.869 450.397 924.684 459.545 933.003 467.917C944.468 479.388 955.676 491.139 967.038 502.722C968.624 504.593 971.113 506.158 973.563 508.101Z" fill="#094973"/>
    <path d="M1119.96 -50.7035C1115.15 -48.6052 1110.67 -46.4891 1106.05 -44.7216C1099.58 -42.2332 1093.04 -39.5445 1086.31 -37.8535C1072.49 -34.3194 1064.09 -38.5414 1056.55 -50.5203C1051.64 -58.3406 1045.33 -65.2129 1039.92 -72.6504C1031.15 -84.5916 1022.62 -96.7241 1013.98 -108.726C1013 -110.038 1012.01 -111.351 1010.67 -113.09C1009.42 -111.964 1008.34 -110.998 1007.27 -110.032C1001.6 -104.572 996.064 -99.0027 990.365 -93.6123C984.408 -87.8607 977.353 -85.1987 969.157 -87.4341C966.235 -88.2346 963.358 -89.8845 960.86 -91.6168C958.1 -93.5671 955.568 -95.9484 953.214 -98.4906C947.441 -104.687 940.315 -108.468 932.692 -111.865C917.937 -118.295 903.055 -124.253 886.946 -126.938C876.306 -128.688 867.098 -133.055 862.345 -143.763C859.204 -150.775 859.099 -157.867 862.152 -164.759C867.646 -177.28 873.511 -189.714 879.336 -202.048C882.135 -207.999 886.079 -213.039 892.102 -216.164C903.552 -222.07 915.46 -220.457 924.958 -211.238C935.039 -201.443 944.763 -191.326 954.665 -181.369C958.677 -177.309 962.549 -173.189 966.56 -169.129C972.549 -176.139 978.15 -182.897 984.051 -189.538C997.193 -204.315 1017.27 -205.102 1030.25 -190.181C1042.42 -176.154 1053.21 -160.939 1064.6 -146.237C1073.56 -134.627 1082.6 -123.047 1091.45 -111.306C1093.78 -108.254 1095.85 -108.078 1098.53 -110.492C1101.17 -112.806 1103.78 -115.19 1106.4 -117.574C1114.08 -124.496 1121.46 -131.945 1129.59 -138.229C1137.68 -144.414 1147.1 -144.704 1156.75 -141.609C1160.43 -140.393 1161.51 -137.543 1162.57 -134.353C1171.31 -108.208 1177.27 -81.4247 1181.57 -54.2517C1183.38 -42.6758 1187.15 -31.3721 1190.47 -20.1255C1199.1 8.97786 1204.66 38.6701 1209.5 68.5967C1210.28 73.2367 1211.19 77.8159 1212.42 82.3431C1214 88.0469 1214.17 93.7795 1213.12 99.5499C1212.64 102.25 1211.57 103.795 1208.29 103.317C1202.17 102.416 1197.2 99.771 1193.79 94.6183C1180.59 74.8139 1166.79 55.3529 1154.5 34.9832C1148.49 24.9924 1145.04 13.4669 1140.81 2.44583C1134.96 -12.6805 1129.46 -27.9588 1123.75 -43.1459C1123.06 -45.499 1121.41 -47.9358 1119.96 -50.7035Z" fill="#094973"/>
    <path d="M671.747 342.369C666.539 338.359 663.822 332.795 660.893 327.148C657.807 321.275 653.538 315.918 649.706 310.487C643.182 301.301 635.983 292.585 629.937 283.014C622.336 270.952 625.385 258.418 637.889 251.564C647.07 246.509 656.835 242.256 666.776 239.217C689.282 232.29 712.146 226.321 734.74 220.001C731.22 212.323 727.457 204.222 723.694 196.121C720.103 188.415 716.413 180.752 712.625 173.131C707.906 163.51 709.346 153.613 717.356 146.545C721.221 143.16 725.724 140.026 730.46 138.374C752 130.576 773.697 123.004 795.482 116.039C814.376 109.981 833.657 104.81 852.695 99.217C853.894 98.871 855.049 98.4262 856.769 97.7945C854.97 94.4712 853.102 91.5297 851.656 88.3456C849.397 83.697 846.728 79.0509 845.47 74.1422C842.608 63.126 848.528 53.6829 859.82 51.992C886.214 48.0652 911.521 39.6241 937.481 33.8916C952.182 30.5985 966.824 27.0373 981.712 24.3082C998.011 21.3165 1013.62 16.337 1029.27 11.0464C1042.93 6.44565 1056.79 2.16862 1070.74 -1.50149C1078.12 -3.42369 1085.9 -4.28873 1093.58 -4.70114C1099.45 -5.08883 1104.04 -1.97959 1106.41 3.61472C1109.01 9.70223 1108.04 15.6976 1103.23 20.0204C1099.19 23.6606 1094.26 26.6279 1089.4 29.2133C1051.92 48.6458 1012.55 63.3286 972.684 76.9973C959.361 81.5678 946.296 86.7302 933.102 91.5966C931.678 92.0994 930.254 92.6022 928.999 93.0899C930.466 102.25 931.844 110.802 933.194 119.426C933.591 121.952 933.747 124.466 933.832 126.951C934.146 134.677 930.518 139.953 923.444 142.976C916.99 145.669 910.579 148.462 904.152 151.085C874.881 162.954 845.637 174.752 816.366 186.62C811.222 188.685 806.249 191.144 800.797 193.577C808.352 205.131 813.565 217.235 823.323 226.304C833.792 236.06 833.09 248.863 821.344 257.324C794.265 276.921 766.645 295.815 736.915 311.345C723.536 318.346 710.64 325.782 699.74 336.455C693.264 342.737 685.086 345.243 675.995 344.039C674.579 343.483 673.163 342.926 671.747 342.369Z" fill="#094973"/>
    <path d="M699.228 12.0116C695.282 -0.820508 691.551 -13.1595 687.551 -25.4403C681.725 -43.2623 690.218 -57.1704 709.01 -59.0184C719.952 -60.0291 731.016 -59.6844 742.018 -60.0175C748.629 -60.1975 755.213 -59.8972 761.75 -60.5148C782.406 -62.5291 802.952 -61.562 823.53 -59.8464C825.113 -59.7144 826.823 -59.6962 829.225 -59.5691C824.943 -64.6861 821.131 -69.1277 817.375 -73.7109C811.783 -80.4871 809.846 -88.0336 813.371 -96.3749C815.739 -101.983 820.168 -105.555 826.094 -106.903C830.044 -107.802 834.138 -108.236 838.136 -108.217C858.846 -108.085 879.613 -108.094 900.368 -107.453C919.415 -106.83 938.494 -105.459 957.571 -104.497C985.635 -103.108 1013.63 -101.337 1041.52 -97.6443C1052.79 -96.1566 1064.2 -96.492 1075.62 -96.0081C1079.39 -95.8325 1083.25 -95.8693 1086.95 -95.3118C1093.6 -94.3338 1098.15 -89.6845 1099.05 -83.4458C1100.05 -76.8404 1096.95 -70.6206 1090.92 -67.7598C1088.52 -66.658 1085.97 -65.7813 1083.37 -65.4129C1057.64 -61.7159 1032.06 -57.144 1006.2 -54.8025C982.413 -52.7133 958.438 -53.0669 934.498 -52.2623C923.976 -51.9039 913.539 -51.3481 902.311 -50.8584C904.007 -46.0229 905.571 -41.893 906.965 -37.7479C909.093 -31.5164 911.488 -25.3429 910.285 -18.5409C909.067 -11.9084 903.643 -6.84743 897.106 -6.22984C887.563 -5.24142 877.993 -3.77252 868.419 -3.12296C842.916 -1.46161 817.368 -0.308591 791.85 1.18334C777.544 2.01608 763.325 3.0461 748.314 4.01012C749.162 8.92124 749.654 13.2835 750.682 17.5296C752.333 24.555 754.352 31.4793 756.003 38.5047C756.655 41.2132 756.94 44.0228 756.843 46.7639C756.649 52.2462 754.301 56.5545 749.187 58.9578C741.777 62.42 734.367 65.8822 726.827 69.0485C704.561 78.2769 682.28 87.3358 659.929 96.3669C657.222 97.4282 654.403 98.363 651.623 98.9867C640.885 101.141 632.6 97.4739 627.275 87.9414C624.919 83.7455 623.014 79.2361 621.518 74.7244C618.383 65.2355 615.106 55.691 612.873 45.985C609.509 31.2565 616.545 21.6796 631.258 18.1462C648.68 13.9613 666.439 14.3232 684.075 12.9199C688.961 12.5522 693.692 12.369 699.228 12.0116Z" fill="#094973"/>
    <path d="M933.215 716.444C929.411 721.804 923.956 724.735 918.427 727.881C912.679 731.193 907.492 735.668 902.214 739.708C893.288 746.584 884.859 754.117 875.53 760.531C863.773 768.594 851.13 766.036 843.795 753.807C838.387 744.83 833.757 735.238 830.334 725.422C822.537 703.203 815.684 680.588 808.489 658.257C800.954 662.073 793.006 666.148 785.057 670.223C777.496 674.111 769.983 678.096 762.515 682.178C753.085 687.267 743.14 686.214 735.765 678.484C732.233 674.754 728.926 670.377 727.09 665.708C718.461 644.487 710.051 623.102 702.244 601.604C695.456 582.96 689.539 563.895 683.21 545.088C682.818 543.904 682.328 542.766 681.63 541.073C678.379 543 675.513 544.981 672.387 546.549C667.83 548.987 663.291 551.835 658.435 553.283C647.539 556.571 637.872 551.022 635.744 539.805C630.793 513.584 621.375 488.624 614.637 462.907C610.775 448.345 606.647 433.852 603.341 419.082C599.718 402.912 594.135 387.508 588.24 372.076C583.111 358.604 578.298 344.919 574.089 331.123C571.881 323.826 570.714 316.087 570.003 308.426C569.387 302.571 572.316 297.873 577.814 295.279C583.796 292.452 589.824 293.185 594.331 297.82C598.125 301.722 601.282 306.53 604.055 311.284C624.93 347.977 641.132 386.746 656.341 426.054C661.426 439.19 667.093 452.044 672.469 465.039C673.026 466.442 673.584 467.845 674.12 469.08C683.216 467.258 691.709 465.548 700.273 463.864C702.782 463.37 705.288 463.116 707.768 462.934C715.476 462.32 720.889 465.74 724.184 472.691C727.127 479.036 730.167 485.333 733.037 491.653C746.036 520.441 758.962 549.203 771.96 577.991C774.223 583.051 776.873 587.924 779.517 593.278C790.768 585.279 802.661 579.599 811.343 569.496C820.685 558.656 833.505 558.859 842.416 570.267C863.052 596.563 883.006 623.428 899.68 652.531C907.196 665.628 915.128 678.226 926.217 688.702C932.746 694.928 935.568 703.004 934.718 712.134C934.217 713.571 933.716 715.007 933.215 716.444Z" fill="#094973"/>
    <path d="M576.559 703.179C563.891 707.621 551.706 711.829 539.59 716.303C522.008 722.818 507.78 714.872 505.203 696.166C503.767 685.272 503.682 674.203 502.921 663.222C502.484 656.624 502.528 650.032 501.657 643.524C498.841 622.963 499.008 602.395 499.922 581.765C499.992 580.178 499.944 578.469 499.978 576.064C495.031 580.542 490.741 584.524 486.307 588.455C479.754 594.306 472.288 596.535 463.816 593.337C458.12 591.189 454.379 586.902 452.801 581.034C451.749 577.121 451.156 573.047 451.02 569.052C450.347 548.352 449.531 527.601 449.364 506.836C449.245 487.78 449.874 468.662 450.093 449.562C450.389 421.466 451.07 393.423 453.676 365.407C454.724 354.089 453.945 342.699 453.985 331.271C454.013 327.495 453.827 323.642 454.24 319.919C454.959 313.241 459.427 308.516 465.627 307.375C472.188 306.12 478.524 308.975 481.617 314.889C482.811 317.239 483.786 319.755 484.255 322.336C488.95 347.904 494.514 373.292 497.859 399.033C500.871 422.725 501.45 446.696 503.185 470.587C503.953 481.087 504.914 491.494 505.84 502.694C510.606 500.812 514.672 499.088 518.759 497.534C524.903 495.166 530.979 492.532 537.823 493.47C544.498 494.429 549.766 499.651 550.637 506.16C551.996 515.658 553.836 525.163 554.857 534.704C557.509 560.123 559.655 585.608 562.138 611.049C563.526 625.311 565.108 639.48 566.655 654.442C571.53 653.403 575.87 652.742 580.072 651.55C587.028 649.626 593.869 647.34 600.825 645.416C603.506 644.66 606.302 644.266 609.045 644.256C614.531 644.237 618.927 646.415 621.527 651.432C625.275 658.702 629.023 665.972 632.48 673.382C642.567 695.273 652.486 717.185 662.379 739.168C663.545 741.831 664.589 744.613 665.32 747.366C667.89 758.011 664.548 766.433 655.23 772.125C651.129 774.642 646.697 776.722 642.247 778.391C632.887 781.893 623.477 785.539 613.865 788.147C599.279 792.081 589.435 785.424 585.333 770.859C580.473 753.613 580.144 735.853 578.056 718.285C577.499 713.417 577.132 708.697 576.559 703.179Z" fill="#094973"/>
    <path d="M343.388 612.063C348.596 612.718 353.521 613.184 358.399 614.027C365.23 615.193 372.23 616.227 378.881 618.213C392.56 622.234 397.621 630.154 397.987 644.308C398.207 653.537 400.125 662.672 400.967 671.825C402.409 686.574 403.539 701.361 404.83 716.091C405.008 717.724 405.186 719.356 405.449 721.536C407.1 721.207 408.516 720.925 409.931 720.643C417.595 718.847 425.201 716.89 432.855 715.169C440.914 713.269 448.339 714.586 454.241 720.696C456.344 722.877 457.974 725.766 459.237 728.531C460.612 731.618 461.572 734.959 462.296 738.347C464.092 746.623 468.285 753.514 473.102 760.331C482.499 773.397 492.246 786.124 504.722 796.663C512.972 803.605 518.656 812.064 517.269 823.697C516.386 831.33 512.852 837.479 506.706 841.843C495.585 849.799 484.19 857.489 472.88 865.114C467.433 868.799 461.468 871.116 454.693 870.724C441.833 869.95 432.422 862.479 428.969 849.701C425.309 836.129 422.12 822.464 418.696 808.846C417.323 803.306 416.1 797.785 414.727 792.245C405.997 795.211 397.729 798.158 389.263 800.85C370.415 806.837 352.759 797.255 349.226 777.796C345.928 759.517 344.432 740.927 342.153 722.469C340.381 707.909 338.533 693.338 336.921 678.721C336.481 674.909 334.793 673.7 331.254 674.405C327.8 675.044 324.336 675.758 320.873 676.473C310.728 678.494 300.582 681.128 290.381 682.375C280.265 683.556 272.022 678.993 265.31 671.401C262.764 668.474 263.295 665.474 264.015 662.191C269.857 635.247 278.425 609.183 288.617 583.629C292.975 572.753 295.512 561.111 298.399 549.743C305.857 520.319 316.248 491.953 327.385 463.759C329.087 459.372 330.638 454.967 331.896 450.448C333.457 444.741 336.235 439.723 340.088 435.301C341.883 433.226 343.591 432.444 346.165 434.531C350.965 438.432 353.887 443.247 354.184 449.418C355.411 473.187 357.328 496.967 357.479 520.754C357.546 532.417 354.621 544.087 352.622 555.719C349.92 571.711 346.841 587.655 343.989 603.628C343.383 606.005 343.551 608.94 343.388 612.063Z" fill="#EFC913"/>
    <path d="M-1.5165 136.086C-1.78046 129.519 0.746021 123.866 3.20037 117.996C5.72691 111.862 7.0988 105.151 8.80745 98.7278C11.6713 87.8305 13.7412 76.7166 17.2064 65.9396C21.5861 52.3722 33.1578 46.672 46.4365 51.8695C56.203 55.6714 65.7289 60.4355 74.4368 66.1137C94.1859 78.9378 113.43 92.6519 132.77 105.933C136.403 98.3075 140.205 90.2249 144.007 82.1423C147.616 74.4446 151.129 66.6987 154.546 58.9047C158.901 49.1142 167.417 43.8707 177.978 45.4836C183.054 46.2779 188.346 47.7218 192.652 50.2963C212.449 61.8214 232.174 73.611 251.491 85.8577C268.257 96.4683 284.59 107.945 301.092 118.964C302.126 119.662 303.209 120.264 304.796 121.178C306.192 117.666 307.251 114.346 308.766 111.195C310.884 106.48 312.737 101.452 315.696 97.339C322.313 88.0779 333.355 86.5635 341.894 94.1421C361.835 111.874 384.543 125.877 405.591 142.117C417.546 151.284 429.669 160.234 441.312 169.906C454.061 180.492 467.892 189.274 481.989 197.888C494.281 205.419 506.452 213.31 518.215 221.659C524.421 226.086 530.074 231.499 535.318 237.129C539.383 241.387 539.936 246.896 537.169 252.309C534.161 258.202 528.941 261.305 522.542 260.39C517.153 259.62 511.716 257.743 506.617 255.674C467.671 239.384 431.155 218.595 395.097 196.772C383.045 189.482 370.705 182.769 358.509 175.767C357.21 174.997 355.911 174.228 354.732 173.578C348.645 180.578 342.967 187.121 337.217 193.687C335.533 195.612 333.704 197.344 331.852 199.003C326.126 204.199 319.751 204.8 312.895 201.311C306.689 198.087 300.435 194.959 294.301 191.71C266.421 176.865 238.613 161.995 210.733 147.15C205.85 144.527 200.774 142.289 195.41 139.666C191.391 152.873 185.448 164.636 184.749 177.939C183.977 192.229 173.705 199.902 159.68 196.316C127.277 188.109 95.066 179.037 64.0825 166.188C50.1303 160.413 36.154 155.287 20.9745 153.77C12.0016 152.831 4.83321 148.163 -0.0735396 140.417C-0.554531 138.973 -1.03551 137.53 -1.5165 136.086Z" fill="#094973"/>
    <path d="M287.661 -57.4039C294.976 -68.6615 302.049 -79.4382 308.907 -90.3832C318.843 -106.284 334.961 -108.688 348.432 -95.4552C356.225 -87.7082 363.056 -78.9991 370.369 -70.771C374.747 -65.8149 378.74 -60.5702 383.406 -55.9509C398.199 -41.3953 410.635 -25.0116 422.517 -8.12273C423.431 -6.82358 424.514 -5.50039 425.957 -3.57573C427.136 -10.143 428.099 -15.9165 429.206 -21.738C430.819 -30.3742 435.366 -36.7006 444.027 -39.3459C449.849 -41.1255 455.43 -40.0184 460.265 -36.3372C463.488 -33.8832 466.446 -31.0201 468.996 -27.9407C482.178 -11.9659 495.503 3.96087 508.324 20.2965C520.062 35.3089 531.247 50.8265 542.744 66.0794C559.678 88.5018 576.274 111.117 591.331 134.886C597.417 144.485 604.993 153.026 611.945 162.096C614.23 165.103 616.732 168.038 618.68 171.238C622.192 176.964 621.541 183.435 617.331 188.125C612.904 193.129 606.144 194.74 600.082 191.949C597.701 190.818 595.391 189.422 593.443 187.666C574.103 170.295 554.186 153.598 535.809 135.265C518.947 118.352 503.841 99.7306 487.87 81.8791C480.846 74.036 473.726 66.3853 466.149 58.0851C463.526 62.4871 461.361 66.336 459.075 70.0645C455.659 75.6934 452.458 81.4907 446.468 84.9301C440.598 88.2494 433.237 87.3345 428.57 82.7152C421.691 76.0268 414.426 69.627 407.787 62.6981C390.156 44.1969 372.885 25.3349 355.374 6.71342C345.56 -3.72808 335.65 -13.9771 325.282 -24.8758C322.058 -21.0751 319.027 -17.9 316.429 -14.388C312.098 -8.61488 308.08 -2.6252 303.749 3.14791C302.089 5.38502 300.116 7.40556 297.951 9.08929C293.62 12.4568 288.809 13.4185 283.685 11.0364C276.276 7.57157 268.867 4.1067 261.602 0.353168C240.241 -10.8112 219.001 -22.0958 197.736 -33.4525C195.186 -34.8481 192.66 -36.412 190.399 -38.1443C181.86 -45.0012 179.359 -53.7099 183.257 -63.9095C184.965 -68.4079 187.203 -72.7619 189.705 -76.8031C194.974 -85.2946 200.196 -93.9303 206.211 -101.868C215.353 -113.896 227.213 -114.64 239.361 -105.618C253.745 -94.9353 264.858 -81.0777 277.246 -68.4468C280.662 -64.9342 283.837 -61.4216 287.661 -57.4039Z" fill="#EFC913"/>
    <g clip-path="url(#clip1)">
      <path d="M1616.35 1031.39C1612.55 1036.75 1607.09 1039.68 1601.56 1042.82C1595.82 1046.14 1590.63 1050.61 1585.35 1054.65C1576.43 1061.53 1568 1069.06 1558.67 1075.47C1546.91 1083.54 1534.27 1080.98 1526.93 1068.75C1521.52 1059.77 1516.9 1050.18 1513.47 1040.37C1505.67 1018.15 1498.82 995.531 1491.63 973.2C1484.09 977.017 1476.14 981.092 1468.2 985.167C1460.63 989.055 1453.12 993.04 1445.65 997.122C1436.22 1002.21 1426.28 1001.16 1418.9 993.427C1415.37 989.697 1412.06 985.32 1410.23 980.651C1401.6 959.431 1393.19 938.045 1385.38 916.548C1378.59 897.903 1372.68 878.838 1366.35 860.032C1365.96 858.847 1365.47 857.71 1364.77 856.016C1361.52 857.943 1358.65 859.924 1355.53 861.492C1350.97 863.931 1346.43 866.778 1341.57 868.226C1330.68 871.514 1321.01 865.966 1318.88 854.749C1313.93 828.527 1304.51 803.567 1297.77 777.85C1293.91 763.289 1289.78 748.796 1286.48 734.025C1282.86 717.855 1277.27 702.452 1271.38 687.02C1266.25 673.547 1261.44 659.863 1257.23 646.066C1255.02 638.769 1253.85 631.03 1253.14 623.37C1252.53 617.515 1255.45 612.816 1260.95 610.222C1266.93 607.395 1272.96 608.129 1277.47 612.763C1281.26 616.666 1284.42 621.473 1287.19 626.228C1308.07 662.921 1324.27 701.689 1339.48 740.998C1344.56 754.133 1350.23 766.987 1355.61 779.982C1356.16 781.385 1356.72 782.789 1357.26 784.023C1366.35 782.202 1374.85 780.492 1383.41 778.807C1385.92 778.313 1388.43 778.059 1390.91 777.878C1398.61 777.264 1404.03 780.683 1407.32 787.634C1410.27 793.979 1413.3 800.277 1416.18 806.596C1429.17 835.384 1442.1 864.147 1455.1 892.934C1457.36 897.994 1460.01 902.867 1462.66 908.221C1473.91 900.223 1485.8 894.543 1494.48 884.439C1503.82 873.599 1516.64 873.802 1525.55 885.211C1546.19 911.507 1566.14 938.371 1582.82 967.475C1590.33 980.572 1598.27 993.169 1609.35 1003.65C1615.88 1009.87 1618.71 1017.95 1617.86 1027.08C1617.36 1028.51 1616.85 1029.95 1616.35 1031.39Z" fill="#094973"/>
      <path d="M1259.7 1018.12C1247.03 1022.56 1234.84 1026.77 1222.73 1031.25C1205.15 1037.76 1190.92 1029.82 1188.34 1011.11C1186.91 1000.22 1186.82 989.147 1186.06 978.165C1185.62 971.567 1185.67 964.976 1184.79 958.467C1181.98 937.906 1182.15 917.338 1183.06 896.708C1183.13 895.121 1183.08 893.413 1183.12 891.007C1178.17 895.485 1173.88 899.467 1169.45 903.399C1162.89 909.25 1155.43 911.479 1146.95 908.281C1141.26 906.132 1137.52 901.845 1135.94 895.977C1134.89 892.065 1134.29 887.991 1134.16 883.995C1133.49 863.295 1132.67 842.545 1132.5 821.78C1132.38 802.723 1133.01 783.605 1133.23 764.506C1133.53 736.409 1134.21 708.366 1136.81 680.35C1137.86 669.033 1137.08 657.642 1137.12 646.215C1137.15 642.438 1136.96 638.586 1137.38 634.863C1138.1 628.184 1142.57 623.459 1148.76 622.319C1155.33 621.063 1161.66 623.919 1164.75 629.832C1165.95 632.183 1166.92 634.698 1167.39 637.279C1172.09 662.847 1177.65 688.235 1181 713.977C1184.01 737.669 1184.59 761.639 1186.32 785.53C1187.09 796.03 1188.05 806.437 1188.98 817.637C1193.74 815.755 1197.81 814.032 1201.9 812.477C1208.04 810.109 1214.12 807.475 1220.96 808.413C1227.64 809.373 1232.9 814.595 1233.77 821.103C1235.13 830.601 1236.97 840.106 1238 849.648C1240.65 875.067 1242.79 900.551 1245.28 925.992C1246.66 940.254 1248.25 954.423 1249.79 969.385C1254.67 968.347 1259.01 967.685 1263.21 966.493C1270.17 964.57 1277.01 962.283 1283.96 960.36C1286.64 959.603 1289.44 959.209 1292.18 959.2C1297.67 959.18 1302.07 961.359 1304.67 966.375C1308.41 973.645 1312.16 980.915 1315.62 988.326C1325.71 1010.22 1335.62 1032.13 1345.52 1054.11C1346.68 1056.77 1347.73 1059.56 1348.46 1062.31C1351.03 1072.95 1347.69 1081.38 1338.37 1087.07C1334.27 1089.59 1329.83 1091.66 1325.38 1093.33C1316.03 1096.84 1306.62 1100.48 1297 1103.09C1282.42 1107.02 1272.57 1100.37 1268.47 1085.8C1263.61 1068.56 1263.28 1050.8 1261.19 1033.23C1260.64 1028.36 1260.27 1023.64 1259.7 1018.12Z" fill="#094973"/>
      <path d="M1009.79 794.754C1014.75 796.483 1019.47 797.968 1024.06 799.813C1030.5 802.381 1037.13 804.856 1043.22 808.189C1055.75 814.98 1059.05 823.784 1056.45 837.701C1054.73 846.772 1054.7 856.106 1053.61 865.233C1051.93 879.958 1049.95 894.654 1048.13 909.329C1047.96 910.962 1047.8 912.596 1047.6 914.782C1049.28 914.806 1050.72 914.826 1052.17 914.846C1060.04 914.692 1067.88 914.368 1075.73 914.286C1084.01 914.113 1090.99 916.953 1095.49 924.162C1097.09 926.734 1098.08 929.9 1098.73 932.868C1099.43 936.174 1099.67 939.642 1099.67 943.106C1099.7 951.575 1102.36 959.191 1105.64 966.864C1112.1 981.606 1118.97 996.089 1128.97 1009C1135.59 1017.52 1139.38 1026.98 1135.59 1038.06C1133.13 1045.34 1128.39 1050.62 1121.46 1053.6C1108.93 1059.05 1096.17 1064.19 1083.52 1069.29C1077.42 1071.75 1071.11 1072.77 1064.56 1070.97C1052.15 1067.52 1044.51 1058.25 1043.8 1045.03C1043.06 1031 1042.8 1016.97 1042.3 1002.93C1042.11 997.228 1042.07 991.573 1041.89 985.869C1032.73 986.943 1024.03 988.097 1015.19 988.96C995.504 990.874 980.24 977.813 980.854 958.045C981.45 939.48 983.874 920.989 985.505 902.462C986.816 887.853 988.055 873.218 989.535 858.587C989.901 854.767 988.503 853.231 984.895 853.181C981.383 853.084 977.847 853.058 974.311 853.033C963.968 852.888 953.496 853.343 943.259 852.43C933.12 851.47 926.013 845.284 921.036 836.457C919.159 833.063 920.305 830.24 921.695 827.18C933.041 802.053 946.87 778.355 962.178 755.497C968.714 745.773 973.629 734.919 978.829 724.405C992.273 697.19 1008.37 671.624 1025.15 646.381C1027.73 642.447 1030.17 638.464 1032.34 634.308C1035.06 629.053 1038.83 624.727 1043.52 621.208C1045.71 619.554 1047.55 619.147 1049.63 621.726C1053.5 626.544 1055.35 631.863 1054.36 637.96C1050.59 661.461 1047.49 685.115 1042.66 708.409C1040.29 719.828 1034.99 730.628 1030.6 741.586C1024.62 756.659 1018.27 771.607 1012.15 786.63C1011.06 788.829 1010.61 791.733 1009.79 794.754Z" fill="#EFC913"/>
    </g>
    <path d="M152.011 664.824C159.012 676.279 165.683 687.309 172.6 698.217C182.659 714.04 177.875 729.619 160.127 736.064C149.776 739.753 138.972 742.16 128.395 745.208C122.035 747.019 115.581 748.359 109.401 750.577C89.8879 757.645 69.7427 761.797 49.3805 765.232C47.8142 765.496 46.1535 765.902 43.7946 766.374C49.2108 770.271 54.0042 773.63 58.7788 777.14C65.8746 782.32 69.6207 789.151 68.2716 798.106C67.3659 804.126 63.9597 808.683 58.5531 811.458C54.9487 813.307 51.0896 814.741 47.2115 815.713C27.1135 820.715 6.99667 825.867 -13.2712 830.387C-31.8783 834.502 -50.7025 837.899 -69.4229 841.693C-96.9563 847.298 -124.518 852.517 -152.457 855.848C-163.742 857.198 -174.716 860.35 -185.897 862.709C-189.596 863.473 -193.323 864.464 -197.05 864.842C-203.731 865.54 -209.288 862.162 -211.704 856.34C-214.308 850.188 -212.846 843.395 -207.713 839.13C-205.666 837.469 -203.41 835.987 -200.986 834.987C-176.972 825.032 -153.317 814.265 -128.85 805.593C-106.318 797.676 -83.0022 792.08 -60.0075 785.371C-49.9019 782.417 -39.9284 779.293 -29.1717 776.038C-32.012 771.773 -34.5503 768.159 -36.9282 764.489C-40.5327 758.978 -44.3827 753.591 -44.9018 746.703C-45.3643 739.975 -41.3637 733.728 -35.1834 731.511C-26.1817 728.189 -17.2745 724.396 -8.15967 721.395C16.1372 713.468 40.6038 706.023 64.9573 698.257C78.6107 693.907 92.132 689.387 106.436 684.734C104.398 680.187 102.841 676.082 100.794 672.223C97.4531 665.826 93.7825 659.617 90.4421 653.22C89.1399 650.757 88.1679 648.105 87.5829 645.426C86.4127 640.066 87.6204 635.311 91.9796 631.715C98.3014 626.526 104.623 621.336 111.143 616.401C130.429 601.945 149.772 587.649 169.191 573.363C171.55 571.665 174.05 570.06 176.588 568.768C186.458 564.021 195.394 565.521 202.914 573.438C206.235 576.919 209.198 580.816 211.765 584.817C217.153 593.234 222.692 601.669 227.259 610.52C234.166 623.956 229.722 634.977 216.343 642.045C200.5 650.414 183.205 654.463 166.466 660.191C161.824 661.757 157.285 663.107 152.011 664.824Z" fill="#094973"/>
    <path d="M222.039 220.727C228.286 222.77 232.703 227.11 237.348 231.457C242.216 235.965 248.028 239.591 253.451 243.433C262.665 249.917 272.36 255.734 281.251 262.74C292.439 271.577 293.745 284.41 284.243 295.042C277.273 302.869 269.486 310.135 261.127 316.316C242.221 330.352 222.656 343.604 203.463 357.098C209.343 363.163 215.592 369.545 221.841 375.927C227.797 381.994 233.831 387.988 239.944 393.909C247.6 401.405 249.544 411.216 244.349 420.551C241.835 425.031 238.635 429.487 234.721 432.625C217.015 447.159 199.086 461.534 180.871 475.365C165.079 487.378 148.626 498.683 132.543 510.305C131.529 511.031 130.588 511.836 129.177 513.005C131.982 515.538 134.724 517.688 137.148 520.208C140.829 523.837 144.894 527.327 147.717 531.535C154.089 540.966 151.657 551.843 141.576 557.203C118.003 569.707 96.9592 586.105 74.3978 600.167C61.637 608.174 49.0204 616.415 35.8953 623.953C21.5274 632.209 8.47269 642.109 -4.5165 652.316C-15.8617 661.21 -27.5031 669.865 -39.4302 677.977C-45.7438 682.249 -52.7887 685.659 -59.8938 688.61C-65.3026 690.935 -70.6585 689.531 -74.766 685.05C-79.2404 680.176 -80.3276 674.201 -77.2384 668.523C-74.637 663.742 -70.9818 659.301 -67.2637 655.243C-38.4131 624.425 -6.19423 597.452 26.8346 571.27C37.8704 562.517 48.4659 553.293 59.2816 544.305C60.4562 543.356 61.6308 542.408 62.6508 541.529C58.2135 533.383 54.0619 525.78 49.9129 518.1C48.6968 515.851 47.7114 513.533 46.802 511.218C43.9297 504.04 45.5902 497.855 51.2511 492.647C56.4374 487.955 61.5503 483.184 66.734 478.568C90.3713 457.617 114.006 436.741 137.643 415.79C141.804 412.128 145.672 408.151 150.001 404.039C139.025 395.666 130.074 385.994 117.85 380.699C104.726 374.992 101.118 362.688 109.37 350.795C128.363 323.289 148.1 296.265 170.949 271.708C181.227 260.646 190.906 249.335 197.622 235.638C201.631 227.556 208.506 222.466 217.478 220.569C218.998 220.622 220.519 220.674 222.039 220.727Z" fill="#094973"/>
    <path d="M1298.55 506.495C1298.23 499.93 1300.7 494.253 1303.1 488.361C1305.56 482.202 1306.87 475.478 1308.52 469.039C1311.28 458.115 1313.24 446.981 1316.6 436.172C1320.85 422.563 1332.37 416.752 1345.7 421.822C1355.5 425.53 1365.07 430.202 1373.83 435.797C1393.7 448.431 1413.08 461.959 1432.54 475.054C1436.1 467.394 1439.83 459.276 1443.55 451.157C1447.09 443.425 1450.53 435.646 1453.87 427.819C1458.13 417.987 1466.59 412.662 1477.17 414.174C1482.25 414.92 1487.56 416.313 1491.89 418.846C1511.8 430.18 1531.63 441.78 1551.07 453.841C1567.93 464.29 1584.38 475.609 1600.98 486.47C1602.02 487.158 1603.11 487.749 1604.71 488.648C1606.07 485.123 1607.1 481.793 1608.58 478.627C1610.65 473.892 1612.46 468.847 1615.38 464.705C1621.91 455.381 1632.93 453.761 1641.54 461.257C1661.66 478.797 1684.5 492.581 1705.7 508.619C1717.74 517.67 1729.95 526.504 1741.69 536.064C1754.54 546.527 1768.45 555.176 1782.63 563.654C1794.99 571.066 1807.24 578.841 1819.08 587.076C1825.33 591.444 1831.03 596.802 1836.33 602.382C1840.44 606.601 1841.04 612.104 1838.33 617.543C1835.38 623.465 1830.19 626.618 1823.78 625.764C1818.38 625.046 1812.93 623.221 1807.81 621.201C1768.71 605.285 1732 584.848 1695.73 563.372C1683.61 556.198 1671.2 549.604 1658.94 542.719C1657.64 541.962 1656.33 541.205 1655.14 540.566C1649.13 547.624 1643.51 554.221 1637.82 560.843C1636.16 562.783 1634.35 564.533 1632.51 566.21C1626.83 571.46 1620.46 572.122 1613.58 568.699C1607.34 565.535 1601.05 562.467 1594.89 559.278C1566.87 544.7 1538.92 530.098 1510.9 515.521C1505.99 512.945 1500.89 510.756 1495.5 508.185C1491.61 521.43 1485.78 533.249 1485.21 546.559C1484.58 560.855 1474.38 568.626 1460.32 565.175C1427.84 557.28 1395.54 548.517 1364.44 535.965C1350.43 530.325 1336.41 525.334 1321.21 523.962C1312.23 523.109 1305.02 518.511 1300.04 510.811C1299.54 509.373 1299.05 507.934 1298.55 506.495Z" fill="#EFC913"/>
    <path d="M1469.61 241.567C1476.82 230.24 1483.79 219.396 1490.54 208.385C1500.32 192.39 1516.42 189.832 1530.01 202.934C1537.88 210.606 1544.8 219.249 1552.19 227.407C1556.61 232.321 1560.65 237.527 1565.37 242.101C1580.3 256.514 1592.89 272.778 1604.93 289.552C1605.86 290.842 1606.95 292.155 1608.42 294.066C1609.53 287.487 1610.44 281.705 1611.49 275.873C1613.02 267.222 1617.51 260.852 1626.14 258.124C1631.95 256.288 1637.54 257.342 1642.41 260.976C1645.66 263.399 1648.64 266.234 1651.22 269.289C1664.55 285.136 1678.03 300.934 1691.01 317.146C1702.89 332.045 1714.22 347.455 1725.87 362.597C1743.01 384.856 1759.83 407.31 1775.11 430.934C1781.29 440.474 1788.95 448.942 1795.99 457.945C1798.3 460.93 1800.83 463.841 1802.81 467.022C1806.37 472.714 1805.79 479.191 1801.62 483.921C1797.24 488.967 1790.5 490.643 1784.41 487.91C1782.02 486.802 1779.7 485.429 1777.73 483.691C1758.22 466.507 1738.15 450.002 1719.6 431.846C1702.57 415.095 1687.29 396.62 1671.15 378.922C1664.05 371.147 1656.85 363.565 1649.2 355.338C1646.62 359.765 1644.49 363.634 1642.24 367.385C1638.88 373.046 1635.73 378.874 1629.78 382.371C1623.94 385.746 1616.57 384.902 1611.86 380.327C1604.91 373.705 1597.59 367.376 1590.88 360.511C1573.08 342.18 1555.62 323.484 1537.94 305.032C1528.02 294.685 1518.01 284.531 1507.54 273.733C1504.36 277.564 1501.35 280.768 1498.79 284.305C1494.51 290.119 1490.55 296.147 1486.28 301.962C1484.64 304.215 1482.69 306.254 1480.54 307.958C1476.24 311.367 1471.44 312.375 1466.29 310.042C1458.85 306.649 1451.41 303.255 1444.11 299.571C1422.64 288.613 1401.29 277.532 1379.92 266.38C1377.36 265.009 1374.82 263.469 1372.54 261.759C1363.93 254.984 1361.35 246.3 1365.15 236.063C1366.81 231.549 1369.01 227.174 1371.47 223.109C1376.66 214.567 1381.8 205.882 1387.74 197.886C1396.76 185.772 1408.62 184.913 1420.85 193.819C1435.34 204.363 1446.58 218.113 1459.09 230.624C1462.54 234.104 1465.75 237.586 1469.61 241.567Z" fill="#094973"/>
    <path d="M-141.977 386.395C-141.326 381.186 -140.863 376.261 -140.024 371.383C-138.863 364.551 -137.835 357.55 -135.854 350.898C-131.844 337.216 -123.927 332.149 -109.774 331.771C-100.546 331.544 -91.412 329.619 -82.2593 328.77C-67.5113 327.316 -52.7255 326.174 -37.9964 324.871C-36.364 324.692 -34.7317 324.513 -32.552 324.249C-32.8823 322.597 -33.1654 321.182 -33.4485 319.767C-35.2509 312.105 -37.2137 304.5 -38.9406 296.847C-40.8469 288.789 -39.5355 281.363 -33.4307 275.456C-31.2511 273.352 -28.3638 271.72 -25.5992 270.455C-22.5137 269.078 -19.1735 268.115 -15.7861 267.388C-7.511 265.586 -0.623014 261.387 6.18946 256.565C19.2483 247.157 31.9674 237.401 42.4974 224.917C49.4324 216.66 57.8867 210.97 69.521 212.348C77.1545 213.225 83.3067 216.754 87.6756 222.896C95.6396 234.012 103.339 245.4 110.973 256.704C114.663 262.149 116.984 268.112 116.597 274.887C115.833 287.748 108.37 297.165 95.594 300.628C82.0255 304.299 68.3627 307.498 54.747 310.933C49.2083 312.31 43.6884 313.537 38.1497 314.915C41.1221 323.643 44.0757 331.909 46.7746 340.372C52.7761 359.215 43.2087 376.879 23.7523 380.428C5.47543 383.74 -13.1129 385.25 -31.5692 387.543C-46.1284 389.327 -60.6972 391.186 -75.3131 392.81C-79.1251 393.253 -80.3328 394.942 -79.625 398.481C-78.9833 401.934 -78.2661 405.397 -77.5489 408.86C-75.52 419.003 -72.8778 429.147 -71.6226 439.347C-70.4334 449.462 -74.9907 457.709 -82.5768 464.427C-85.5018 466.975 -88.5024 466.446 -91.786 465.729C-118.735 459.908 -144.806 451.36 -170.367 441.189C-181.247 436.839 -192.891 434.311 -204.261 431.433C-233.691 423.999 -262.064 413.629 -290.268 402.515C-294.656 400.816 -299.062 399.269 -303.582 398.014C-309.291 396.457 -314.311 393.683 -318.736 389.834C-320.812 388.041 -321.595 386.333 -319.51 383.757C-315.613 378.954 -310.801 376.029 -304.63 375.727C-280.861 374.481 -257.083 372.546 -233.296 372.376C-221.633 372.3 -209.961 375.215 -198.327 377.206C-182.333 379.895 -166.387 382.961 -150.412 385.801C-148.034 386.405 -145.1 386.235 -141.977 386.395Z" fill="#EFC913"/>
  </g>
  <defs>
    <clipPath id="clip0">
      <rect width="1440" height="772" fill="white"/>
    </clipPath>
    <clipPath id="clip1">
      <rect width="504.29" height="723.457" fill="white" transform="translate(1710.29 762.183) rotate(109.236)"/>
    </clipPath>
  </defs>
</svg>
